<svg height="512" viewBox="0 0 64 64" width="512" xmlns="http://www.w3.org/2000/svg"><g id="Cloudy"><path d="m52.34 27.768a10.00345 10.00345 0 1 1 -3.55-7.64 10.01 10.01 0 0 1 3.55 7.64z" fill="#ffb433"/><path d="m40.34 35.768a8.77442 8.77442 0 0 1 -5.64-1.55 9.99844 9.99844 0 0 1 7.64-16.45 6.58049 6.58049 0 0 1 2.92506.60308c6.93106 3.27052 4.96574 17.39692-4.92506 17.39692z" fill="#fddb3a"/><path d="m49.26 34.978a9.99333 9.99333 0 0 1 -16.92-7.21 9.75812 9.75812 0 0 1 .5-3.12 13.64587 13.64587 0 0 1 8.86 7.97 1.00322 1.00322 0 0 0 1.03.63 8.45148 8.45148 0 0 1 .87-.04 9.87209 9.87209 0 0 1 5.66 1.77z" fill="#ffb433"/><path d="m40.68213 14.82759v-4.124a1 1 0 0 1 2 0v4.124a1 1 0 0 1 -2 0zm-5.40967 1.43066-1.38525-2.38086a1 1 0 0 0 -1.72852 1.00586l1.38531 2.38086a1 1 0 0 0 1.72846-1.00586zm23.72754 12.00342h-2.771a1 1 0 0 0 0 2h2.771a1 1 0 0 0 0-2zm-9.18018-10.99756 1.38526-2.38086a1 1 0 0 0 -1.72852-1.00586l-1.38525 2.38086a1 1 0 0 0 1.72851 1.00586zm-20.23877 3.9126-3.5996-2.062a1 1 0 0 0 -.99415 1.73535l3.59961 2.062a1 1 0 0 0 .99414-1.73535zm28.79595 16.49609-3.59961-2.062a1 1 0 0 0 -.99414 1.73535l3.59961 2.062a1 1 0 0 0 .99414-1.73535zm-3.59966-14.76074 3.59961-2.062a1 1 0 0 0 -.99414-1.73535l-3.59961 2.062a1 1 0 0 0 .99414 1.73535z" fill="#ffb433"/><path d="m12.16664 54.288h30.57113a10.16317 10.16317 0 0 0 10.13181-8.358 9.99952 9.99952 0 0 0 -9.85105-11.639q-.44142 0-.87339.03775a1.00684 1.00684 0 0 1 -1.03226-.63005 13.6097 13.6097 0 0 0 -26.13447 3.56551.96715.96715 0 0 1 -1.16971.82861 8.17979 8.17979 0 1 0 -1.64206 16.19518z" fill="#00c4d4"/><path d="m12.16664 54.288h27.57113c4.9382 0 10.40641-3.46505 11.13181-8.358.81792-5.517-2.81645-11.02773-9.24458-10.46956a1.00684 1.00684 0 0 1 -1.03226-.63005c-2.02405-4.98571-6.38819-9.629-12.09275-9.629a13.62145 13.62145 0 0 0 -13.52158 12.06283.96715.96715 0 0 1 -1.16971.82861 8.17979 8.17979 0 1 0 -1.64206 16.19517z" fill="#a1e2de"/><g fill="#fff"><path d="m17.63983 35.03012a10.9518 10.9518 0 0 1 5.30909-6.48926.99982.99982 0 0 1 .95312 1.75781 8.96109 8.96109 0 0 0 -4.34717 5.30957 1.00021 1.00021 0 0 1 -1.91504-.57812z"/><path d="m27.41083 28.2556a1 1 0 1 1 -1-1 1 1 0 0 1 1 1z"/></g></g></svg>