<svg id="Layer_1" enable-background="new 0 0 128 128" height="128" viewBox="0 0 128 128" width="128" xmlns="http://www.w3.org/2000/svg" xmlns:xlink="http://www.w3.org/1999/xlink"><linearGradient id="SVGID_1_" gradientUnits="userSpaceOnUse" x1="1.988" x2="126.006" y1="63.992" y2="63.992"><stop offset="0" stop-color="#43c2f9"/><stop offset="1" stop-color="#7cf0ee"/></linearGradient><g><g><path d="m55.777 83.014c1.104 0 2-.896 2-2s-.896-2-2-2h-7.144c-1.104 0-2 .896-2 2s.896 2 2 2zm-23.172 22.605c0-1.104-.896-2-2-2h-10.857c-1.104 0-2 .896-2 2s.896 2 2 2h10.857c1.104 0 2-.896 2-2zm-1.902-12.303c0 1.104.896 2 2 2h46.573c1.104 0 2-.896 2-2s-.896-2-2-2h-46.573c-1.105 0-2 .896-2 2zm5.911 22.605h-3.911c-1.104 0-2 .896-2 2s.896 2 2 2h3.911c1.104 0 2-.896 2-2s-.896-2-2-2zm70.689-82.958c-.89-11.142-8.505-20.593-19.358-23.799-10.795-3.159-22.23.635-29.009 9.447-3.264-1.425-6.848-2.215-10.585-2.215-14.246 0-25.882 11.353-26.356 25.485-11.083.316-20.007 9.409-20.007 20.566 0 11.34 9.239 20.566 20.595 20.566h14.769c1.104 0 2-.896 2-2s-.896-2-2-2h-14.769c-9.151 0-16.595-7.432-16.595-16.566 0-9.151 7.444-16.596 16.595-16.596 5.078 0 9.807 2.287 12.976 6.274.688.866 1.946 1.008 2.81.322.865-.688 1.009-1.945.322-2.81-3.213-4.043-7.722-6.676-12.703-7.504.341-12.043 10.238-21.737 22.362-21.737 9.731 0 18.285 6.211 21.285 15.455 0 .001.001.002.002.003.005.018.016.033.021.049.263.738.916 1.228 1.651 1.313.019.002.036.008.056.01.13.011.263.009.396-.006h.001c5.955-.677 11.917 1.216 16.367 5.188 4.451 3.975 7.005 9.676 7.005 15.643 0 1.104.896 2 2 2s2-.896 2-2c0-7.105-3.04-13.895-8.341-18.627-4.906-4.38-11.356-6.628-17.906-6.302-2.081-5.312-5.751-9.671-10.367-12.606 5.821-7.128 15.317-10.145 24.296-7.517 9.673 2.858 16.331 11.538 16.567 21.6.021.928.679 1.719 1.588 1.91 9.87 2.075 17.034 10.92 17.034 21.032 0 11.839-9.644 21.471-21.498 21.471h-33.448c-1.104 0-2 .896-2 2s.896 2 2 2h33.449c14.06 0 25.498-11.426 25.498-25.471 0-11.47-7.777-21.567-18.703-24.578zm-12.012 82.958h-49.974c-1.104 0-2 .896-2 2s.896 2 2 2h49.974c1.104 0 2-.896 2-2s-.895-2-2-2zm0-20.605c1.104 0 2-.896 2-2s-.896-2-2-2h-7.313c-1.104 0-2 .896-2 2s.896 2 2 2zm12.955 8.303h-69.08c-1.104 0-2 .896-2 2s.896 2 2 2h69.081c1.104 0 2-.896 2-2s-.896-2-2.001-2z" fill="url(#SVGID_1_)"/></g></g></svg>