<svg id="Layer_1" viewBox="0 0 512 512" xmlns="http://www.w3.org/2000/svg" data-name="Layer 1"><path d="m255.732 447.347a193.427 193.427 0 0 1 -37.543-3.7 191.509 191.509 0 0 1 24.294-378.932 10 10 0 0 1 5.851 18.526c-2.043 1.24-4.027 2.5-5.9 3.759a147.424 147.424 0 0 0 164.087 244.971c1.874-1.255 3.8-2.61 5.722-4.025a10 10 0 0 1 14.9 12.461 191.772 191.772 0 0 1 -171.411 106.94z" fill="#fed049"/><g fill="#b9e8f9"><path d="m405.246 199h-119.796a47.39 47.39 0 1 1 13.178-92.92 58.23 58.23 0 0 1 113.372 9.01 42.227 42.227 0 0 1 -6.754 83.91z"/><path d="m211.253 447h-107.474a38.912 38.912 0 0 1 -6.965-77.195 53.27 53.27 0 0 1 103.3-8.452 43.547 43.547 0 1 1 11.139 85.647z"/></g></svg>