<svg id="Capa_1" enable-background="new 0 0 512 512" height="512" viewBox="0 0 512 512" width="512" xmlns="http://www.w3.org/2000/svg"><g><g><path d="m426.843 277.908c46.588 0 85.093-37.431 85.157-84.019.057-41.708-30.242-76.328-70.025-83.048-2.153-.364-3.836-2.045-4.205-4.198-8.991-52.385-54.812-92.184-109.857-91.773-60.869.454-110.306 50.739-109.771 111.608.042 4.739.382 9.406 1.002 13.985.349 2.574-1.227 5.041-3.742 5.692-29.226 7.564-50.712 34.357-50.118 66.084.685 36.623 31.22 65.671 67.849 65.671h193.71z" fill="#a2dbff"/><path d="m511.996 193.891c-.041 34.489-21.153 63.953-51.018 76.929 18.444-15.376 30.257-38.361 30.287-64.148.051-41.708-28.176-71.182-67.958-77.907-2.152-.36-3.831-2.039-4.202-4.191-8.99-52.387-56.889-97.329-111.933-96.928-16.457.123-32.079 3.893-46.106 10.535 18.527-14.428 41.708-23.12 66.846-23.305 55.045-.412 100.862 39.381 109.852 91.769.371 2.152 2.06 3.831 4.212 4.202 39.784 6.713 70.082 41.335 70.02 83.044z" fill="#64caff"/><path d="m212.949 328.726c37.845 0 69.697-30.961 69.561-68.806-.121-33.597-24.417-61.479-56.396-67.204-2.137-.383-3.815-2.031-4.197-4.168-7.727-43.163-46.174-75.675-91.915-74.09-46.907 1.626-85.063 39.639-86.86 86.54-.194 5.075.032 10.06.646 14.925.322 2.549-1.222 4.973-3.7 5.652-23.398 6.418-40.516 28.015-40.08 53.551.51 29.892 25.479 53.599 55.375 53.599h157.566z" fill="#e6f6ff"/><path d="m282.508 259.924c.103 29.741-19.536 55.23-46.322 64.776 15.18-12.646 24.953-31.523 24.881-52.511-.124-33.603-24.417-61.481-56.394-67.207-2.142-.381-3.821-2.029-4.202-4.171-7.724-43.16-46.167-75.672-91.913-74.086-10.618.371-20.782 2.595-30.184 6.385 14.428-11.122 32.285-17.981 51.626-18.65 45.745-1.586 84.189 30.926 91.913 74.086.391 2.142 2.06 3.79 4.202 4.171 31.976 5.725 56.269 33.603 56.393 67.207z" fill="#d1edff"/><path d="m442.915 208.343h-48.576c-3.904 0-7.454 2.264-9.099 5.805l-56.004 120.486c-9.246 19.891 5.277 42.657 27.212 42.657h35.407l-30.3 116.642c-.739 2.843 3.127 4.471 4.645 1.956l93.605-155.097c7.01-11.616-1.354-26.434-14.921-26.434h-35.454l42.587-91.758c3.086-6.65-1.77-14.257-9.102-14.257z" fill="#ffc433"/><g fill="#ffb322"><path d="m426.623 220.893c2.173-4.696.443-9.855-3.316-12.554h19.608c7.332 0 12.193 7.61 9.104 14.263l-42.589 91.756-20.487.001c-2.698 0-4.485-2.801-3.347-5.247z"/><path d="m459.804 340.797-93.602 155.093c-1.524 2.513-5.386.886-4.645-1.957l14.788-56.95 58.165-96.362c6.323-10.473.288-23.532-10.824-26.261h21.194c13.565.001 21.937 14.82 14.924 26.437z"/></g></g><g fill="#a2dbff"><path d="m151.561 403.675c-3.869-1.799-8.463-.12-10.261 3.749l-34.842 74.957c-1.798 3.869-.12 8.463 3.749 10.261 1.054.49 2.161.722 3.251.722 2.912 0 5.702-1.656 7.01-4.471l34.842-74.957c1.799-3.868.12-8.462-3.749-10.261z"/><path d="m108.415 409.064 24.108-51.866c1.798-3.869.12-8.463-3.749-10.261-3.87-1.799-8.463-.12-10.261 3.749l-24.108 51.866c-1.798 3.869-.12 8.463 3.749 10.261 1.054.49 2.161.722 3.251.722 2.912 0 5.701-1.656 7.01-4.471z"/><path d="m175.165 352.121c-3.87-1.799-8.463-.12-10.262 3.749l-9.645 20.749c-1.798 3.869-.12 8.463 3.749 10.261 1.054.49 2.161.722 3.251.722 2.912 0 5.702-1.656 7.01-4.471l9.645-20.749c1.8-3.868.121-8.462-3.748-10.261z"/><path d="m289.28 335.547c-3.87-1.798-8.463-.12-10.261 3.749l-34.842 74.957c-1.798 3.869-.12 8.463 3.749 10.261 1.054.49 2.161.722 3.251.722 2.912 0 5.702-1.656 7.01-4.471l34.842-74.957c1.799-3.868.121-8.462-3.749-10.261z"/><path d="m238.877 441.309c-3.871-1.799-8.463-.12-10.262 3.749l-9.645 20.748c-1.798 3.869-.12 8.463 3.749 10.262 1.054.49 2.161.722 3.251.722 2.912 0 5.702-1.656 7.01-4.471l9.645-20.748c1.799-3.869.12-8.463-3.748-10.262z"/><path d="m57.895 372.87c-3.869-1.799-8.463-.12-10.261 3.749l-9.644 20.748c-1.798 3.869-.12 8.463 3.749 10.261 1.054.49 2.161.722 3.251.722 2.912 0 5.702-1.656 7.01-4.471l9.644-20.748c1.798-3.868.12-8.462-3.749-10.261z"/><path d="m34.39 424.017c-3.869-1.798-8.463-.12-10.261 3.749l-5.764 12.401c-1.798 3.869-.12 8.463 3.749 10.261 1.054.49 2.161.722 3.251.722 2.912 0 5.702-1.656 7.01-4.471l5.764-12.401c1.799-3.868.12-8.462-3.749-10.261z"/><path d="m227.217 378.957 5.764-12.401c1.798-3.869.12-8.463-3.749-10.261-3.869-1.799-8.463-.119-10.261 3.749l-5.764 12.401c-1.798 3.869-.12 8.463 3.749 10.261 1.054.49 2.161.722 3.251.722 2.912 0 5.701-1.656 7.01-4.471z"/></g></g></svg>